<?xml version="1.0" encoding="UTF-8"?>
<svg id="Laag_2" data-name="Laag 2" xmlns="http://www.w3.org/2000/svg" xmlns:xlink="http://www.w3.org/1999/xlink" viewBox="0 0 955.84 677.35">
  <defs>
    <style>
      .cls-1, .cls-2 {
        fill: none;
      }

      .cls-2 {
        stroke: #b78d4b;
        stroke-miterlimit: 10;
        stroke-width: 9.19px;
      }

      .cls-3, .cls-4, .cls-5 {
        fill: #b78d4b;
      }

      .cls-6 {
        clip-path: url(#clippath-1);
      }

      .cls-4 {
        font-size: 68.01px;
        letter-spacing: .03em;
      }

      .cls-4, .cls-5 {
        font-family: Almaq-Refined, Almaq;
      }

      .cls-7 {
        letter-spacing: -.02em;
      }

      .cls-5 {
        font-size: 179.17px;
      }

      .cls-8 {
        clip-path: url(#clippath);
      }

      .cls-9 {
        letter-spacing: .01em;
      }

      .cls-10 {
        letter-spacing: .04em;
      }

      .cls-11 {
        letter-spacing: .04em;
      }
    </style>
    <clipPath id="clippath">
      <polygon class="cls-1" points="166.83 674.56 153.15 490.75 914.51 490.75 928.18 677.35 166.83 674.56"/>
    </clipPath>
    <clipPath id="clippath-1">
      <polygon class="cls-1" points="166.67 256.92 152.58 0 913.93 0 927.61 256.92 166.67 256.92"/>
    </clipPath>
  </defs>
  <g id="Laag_1-2" data-name="Laag 1">
    <g>
      <g class="cls-8">
        <g>
          <path class="cls-3" d="M572.51,39.87c18.29,2.89,35.11,10.21,51.11,19.31,8.32,4.73,16.4,9.87,24.43,15.06,7.17,4.64,14.99,9.11,20.46,15.83,10.18,12.51,8.67,31.02,16.01,45.07,8.15,15.62,24.83,20.5,37.48,31.24,6.04,5.13,10.83,11.75,13.79,19.11,1.41,3.51,2.44,7.27,3.04,11.01.3,1.89.44,3.78.5,5.69.03,1.15.56,5.36-.27,6.37-1.09,1.34-7.54-.57-9.28-1.02-4.71-1.22-9.25-3-13.72-4.92-9.37-4.02-18.63-8.29-27.84-12.64-37.29-17.62-73.54-37.31-109.72-57.06-8.82-4.81-18.93-9.33-25.82-16.86s-2.11-18.12-1.54-27.05c.29-4.46-2.19-10.43-.26-14.39,2.11-4.34,5.95-8.42,8.88-12.22,6.57-8.52,13.37-16.85,19.57-25.65,5.27-7.48-7.03-14.58-12.25-7.16-6.03,8.55-12.65,16.65-19.02,24.93-3.07,3.99-6.36,7.97-9.02,12.26-2.99,4.82-3.44,9.4-2.58,14.93,1.56,9.97-2.74,19.57-1.29,29.54,1.48,10.2,8.97,17.12,17.04,22.76,8.9,6.22,18.86,11.02,28.38,16.21,10.11,5.51,20.22,11,30.37,16.42,20.29,10.85,40.72,21.45,61.44,31.46,10.07,4.86,20.21,9.58,30.43,14.11s20.19,9.18,31.24,10.5c10.31,1.24,18.23-3.76,19.25-14.46.87-9.14-.76-18.75-4.15-27.25-3.37-8.46-8.3-16.28-14.9-22.61s-14.94-10.83-22.73-15.8-13.63-10.43-16.71-19.04-4.07-17.7-6.94-26.31c-7.28-21.89-28.11-32.7-46.65-44.1-20.05-12.32-41.51-23.25-64.98-26.96-3.81-.6-7.59.98-8.73,4.96-.97,3.37,1.18,8.13,4.96,8.73h0Z"/>
          <path class="cls-3" d="M570.78,144.99c-12.96,23.16-27.27,45.61-41.26,68.15-23.24,37.43-46.72,74.71-70.26,111.95-26.25,41.53-52.6,83-79.01,124.43-22.45,35.23-44.95,70.43-67.5,105.6-4.2,6.55-8.4,13.09-12.6,19.63-3.59,5.58-6.87,11.27-7.54,18.02-.83,8.41,3.32,15.43,9.79,20.48,6.78,5.3,14.66,9.33,22.02,13.75s15.17,9.36,24.16,8.07c11-1.58,17.07-11.37,22.46-20.04,11.78-18.96,23.84-37.74,35.83-56.56,20.17-31.68,40.35-63.35,60.5-95.05,23.1-36.35,46.17-72.73,69.12-109.18,20.74-32.94,41.4-65.92,61.76-99.1,13.12-21.38,26.48-42.73,38.44-64.79,1.4-2.58,2.78-5.18,4.02-7.84,3.83-8.23-8.4-15.44-12.25-7.16-8.26,17.73-19.24,34.43-29.35,51.13-18.29,30.22-36.98,60.2-55.74,90.13-22.37,35.71-44.89,71.32-67.46,106.9-21.15,33.34-42.35,66.65-63.56,99.96-15.01,23.57-30.05,47.13-44.98,70.75-4.8,7.6-9.33,17.29-15.61,23.69s-13.13,1.04-19.32-2.67c-7.17-4.3-15.49-8.1-21.87-13.55-9.08-7.75,1.33-18.98,6.16-26.52,20.8-32.39,41.53-64.82,62.23-97.26,25.76-40.37,51.46-80.77,77.08-121.22,24.17-38.16,48.28-76.35,72.2-114.66,16.41-26.29,32.9-52.56,48.65-79.25,2.08-3.53,4.15-7.07,6.15-10.65,4.46-7.98-7.79-15.14-12.25-7.16h0Z"/>
          <path class="cls-3" d="M538.66,357.73c59.2,65.3,113.75,134.75,163.02,207.84,2.95,4.37,5.88,8.76,8.79,13.16,1.54,2.33,3.08,4.66,4.61,7,.68,1.04,1.36,2.07,2.04,3.12.46.68.9,1.37,1.33,2.07.82,1.54.93.53.33-3.01-1.11-.4-11.1,8.73-12.38,9.71-4.59,3.52-9.2,7-13.85,10.44-9.03,6.69-18.17,13.24-27.41,19.64-1.32.91-2.63,1.84-3.97,2.73l-.79.54c-1.84.84-1.84,1.12,0,.83l1.37-.04c-.69-1.02-1.38-2.03-2.07-3.04-.69-1.01-1.39-2.02-2.09-3.02-3.16-4.52-6.4-8.99-9.72-13.39-13.13-17.42-28.31-33.12-41.33-50.59-12.83-17.22-26.46-33.81-38.46-51.6-28.01-41.53-57.63-82.23-80-127.23-4.07-8.18-16.31-1-12.25,7.16,21.21,42.67,48.85,81.78,75.75,120.98,6.56,9.57,12.67,19.37,20.07,28.33,7.33,8.88,14.16,18.04,21.01,27.3,13.7,18.53,29.7,35.11,43.53,53.54,3.31,4.41,6.54,8.88,9.69,13.41s5.79,10.12,11.22,11.71,10.08-1.83,14.43-4.84c5.02-3.47,10.01-6.98,14.97-10.54,9.92-7.11,19.7-14.4,29.37-21.85,7.36-5.67,21.07-12.63,15.16-23.85-5.3-10.07-12.78-19.51-19.15-28.93s-13.31-19.46-20.11-29.09c-13.59-19.27-27.55-38.28-41.87-57.01-32.02-41.9-65.76-82.46-101.18-121.52-6.15-6.78-16.16,3.28-10.04,10.04h0Z"/>
          <path class="cls-3" d="M697.65,565.25c-16.34,15.63-34.58,28.87-54.46,39.65-8.03,4.35-.88,16.61,7.16,12.25,20.89-11.32,40.17-25.44,57.33-41.87,6.61-6.33-3.43-16.35-10.04-10.04h0Z"/>
          <path class="cls-3" d="M472.03,244.92c-5.7-7.44-14.05-12.89-19.14-20.71-2.84-4.37-3.39-9.11-2.4-14.2,1.12-5.78,5.21-11.17,5.73-16.92.47-5.23-3.32-9.17-8.01-10.78-2.18-.75-4.5-1-6.8-1.09-1.96-.08-5.27.6-7.07-.51s-3.15-4.29-4.23-6c-1.42-2.26-2.79-4.55-4.12-6.86-2.96-5.14-5.71-10.39-8.33-15.71-18.89-38.36-31.92-81.96-64.92-111.25-7.79-6.91-16.95-14.32-27.43-16.34-11.1-2.15-22.06,1.12-31.95,6.08-9.29,4.66-19.04,10.79-24.52,19.88s-6.65,20.1-5.44,30.39c2.49,21.09,14.55,39.12,28.08,54.88,15.02,17.5,31.85,33.63,49.34,48.64,9.27,7.95,19.75,15.01,27.99,24.09,3.79,4.18,6.9,9.15,8.03,14.74.46,2.25.61,4.61.23,6.89-.49,2.95-1.96,5.51-1.54,8.6.89,6.57,6.46,8.11,12.13,8.22s10.71,1.11,15.84,2.95c10.16,3.64,18.89,10.81,24.62,19.91,4.86,7.71,17.14.6,12.25-7.16-5.89-9.35-14.03-17.16-23.82-22.36-4.74-2.52-9.84-4.54-15.06-5.79-2.57-.62-5.19-1.03-7.82-1.33-1.5-.17-3-.31-4.51-.37-.61-.02-3.52-.52-2.61.09l3.26,4.24c-.31-.79,1.01-3.72,1.18-4.73.35-2.14.52-4.3.42-6.46-.21-4.28-1.21-8.45-2.83-12.41-3.44-8.45-9.43-15.37-16.23-21.34-14.35-12.6-29.38-24.22-43.17-37.5s-27.15-26.47-37.76-41.89c-9.2-13.38-17.43-30.79-13.41-47.43,2.08-8.58,7.58-13.67,14.86-18.18,7.83-4.86,16.87-9.58,26.35-9.15,8.79.4,16.51,6.8,22.85,12.36s12.53,12.28,17.72,19.31c21.88,29.59,32.56,65.28,49.62,97.53,2.49,4.71,5.12,9.36,7.94,13.89,2.64,4.25,5.36,9.2,9.79,11.85,3.91,2.33,9.75,3.04,14.23,2.45.09-.01,1.63.22,1.69.15-.63-3.29-1.22-4.01-1.78-2.17-.37.84-.73,1.68-1.08,2.52-1.05,2.52-2.03,5.06-2.76,7.7-2.74,9.88-2.06,20.38,3.97,28.92,5.22,7.39,12.89,12.42,18.35,19.55,2.35,3.06,6.08,4.61,9.71,2.55,3.01-1.71,4.87-6.67,2.55-9.71h0Z"/>
          <path class="cls-3" d="M430.43,187.26c-16.84,10.24-32.76,21.88-47.68,34.76-2.49,2.15-2.44,5.91-1.11,8.6,2.74,5.56,9.44,8.01,15.33,6.53,6.25-1.57,11.28-6.88,16.53-10.34,11.15-7.35,23.05-13.63,32.42-23.34l-11.14-8.6c-10.93,14.16-25.92,25.34-42.56,31.88-8.4,3.3-4.74,17.03,3.77,13.68,20.44-8.03,37.63-21.03,51.04-38.4,4.97-6.44-5.65-14.29-11.14-8.6-6.61,6.85-14.6,11.75-22.64,16.74-3.93,2.44-7.86,4.9-11.61,7.61-1.68,1.21-3.27,2.55-4.95,3.75-.78.56-2.27,1.13-2.97,1.76-1.02.91-.34-.92.2.16l-1.11,8.6c14.02-12.1,28.98-22.93,44.81-32.54,7.79-4.74.67-17.01-7.16-12.25h0Z"/>
          <path class="cls-3" d="M344.46,46.91c-21.77,17.19-43.97,33.81-66.57,49.89-7.38,5.25-.3,17.56,7.16,12.25,23.58-16.78,46.72-34.17,69.44-52.11,3.03-2.39,2.46-7.52,0-10.04-2.94-3-7.04-2.36-10.04,0h0Z"/>
          <path class="cls-3" d="M709.9,576.9c-22.66,12.2-45.31,24.4-67.97,36.6-5.77,3.1-3.71,11,1.7,12.97,8.04,2.93,16.45,5.56,25.1,4.2,8.16-1.29,14.47-6.22,20.69-11.33s12.02-10.4,18.97-14.37c6.92-3.95,13.96-7.86,15.28-16.52,1.17-7.69-3.78-14.34-11.39-15.61s-14.01,3.35-19.93,7.67c-14.19,10.36-27.54,21.79-40.71,33.41-2.21,1.94-2.79,6.14-1.11,8.6,5.9,8.64,15.47,5.43,23.78,2.71,9.9-3.25,19.69-7.07,28.91-11.94,7.92-4.19,16.84-9.22,20.42-17.9,3.21-7.78.71-17.9-7.23-21.74-8.19-3.96-15.39,8.28-7.16,12.25,8.52,4.12-14.66,15.93-17.17,17.15-5.34,2.6-10.86,4.8-16.46,6.77-3.09,1.09-6.21,2.11-9.34,3.08-1.17.36-2.73.57-3.8,1.12-1.63.83-1.59-1.44.3,1.34l-1.11,8.6c9.25-8.16,18.57-16.24,28.24-23.9,4.73-3.75,9.55-7.48,14.57-10.84,1.5-1,3.64-2.76,5.58-2.45-1.02-.16.9-1.45-.54.25-.64.76-1.22,1.5-2.04,2.12-4.38,3.31-9.62,5.44-14.06,8.77-4.6,3.44-8.94,7.2-13.37,10.87-4.14,3.43-8.61,7.36-14.15,8.03-6.29.76-12.71-1.89-18.5-4l1.7,12.97c22.66-12.2,45.31-24.4,67.97-36.6,8.04-4.33.89-16.59-7.16-12.25h0Z"/>
          <path class="cls-3" d="M540.2,86.35c44.37,42.09,99.14,69.96,152.17,99.31,15.3,8.47,30.5,17.13,45.37,26.34l1.7-12.97c-12.09,3.45-24.09-5.68-33.83-11.67-11.81-7.26-23.52-14.7-35.26-22.07-23.16-14.55-46.46-28.91-69.47-43.7-10.44-6.72-20.8-13.64-30.59-21.3-6.65-5.21-19.62-19.17-27.57-7.85-6.8,9.69,4.93,21.48,12.88,25.61,5.07,2.64,10.51,4.44,15.51,7.24s10.08,6.37,14.84,9.95c10.05,7.56,19.72,15.71,31.09,21.26,6.26,3.06,12.82,5.49,19.29,8.06,3.18,1.27,6.34,2.57,9.43,4.07,1.59.77,7.21,3.21,7.35,4.01v-3.77c.99-4.44,4.68-1.36.99-3.54-2.04-1.2-3.91-2.68-5.67-4.25-3.75-3.32-7.11-7.04-10.46-10.75-6.96-7.69-14.15-15.2-23.5-19.97-17.67-9.01-40.31-8.48-56.22-20.85-2.87,3.71-5.73,7.43-8.6,11.14,19.75,12.86,39.24,26.12,58.46,39.76,7.46,5.3,14.56-7,7.16-12.25-19.22-13.65-38.7-26.9-58.46-39.76-6.63-4.32-15.02,6.16-8.6,11.14,12.15,9.44,26.46,12.85,41.05,16.76,6.87,1.84,13.77,3.85,20.01,7.35s11.65,8.99,16.64,14.47,9.64,10.84,15.34,15.36c5.17,4.1,11.49,8.49,18.47,6.53,8.27-2.32,9.23-12.25,3.33-17.58s-14.8-8.3-22.14-11.24-15.45-5.93-22.63-10.12-13.51-9.16-19.97-14.13-12.5-9.6-19.33-13.52-15.65-5.59-21.2-10.94c-.91-.87-1.58-2.89-2.43-3.51-1.76-1.29-5.09,1.99-4.28,3.87.08.19,1.24.98,1.45,1.15,3.81,2.99,7.48,6.16,11.32,9.11,6.97,5.35,14.17,10.4,21.49,15.26,15.59,10.36,31.58,20.12,47.43,30.07,18.28,11.48,36.55,22.98,54.84,34.44,16.08,10.07,35.41,25.62,55.61,19.84,5.96-1.7,6.87-9.77,1.7-12.97-50.99-31.59-106.11-56.37-155.15-91.12-13.9-9.85-27.14-20.58-39.51-32.31-6.62-6.28-16.68,3.73-10.04,10.04h0Z"/>
          <path class="cls-3" d="M484.71,341.35c-12.94,24.37-26.69,48.29-41.22,71.74-2.41,3.89,3.72,7.46,6.13,3.58,14.53-23.45,28.28-47.38,41.22-71.74,2.14-4.03-3.98-7.62-6.13-3.58h0Z"/>
          <path class="cls-3" d="M425.72,408.36c-10.59,16.75-22,32.96-34.27,48.53-2.8,3.55,2.19,8.6,5.02,5.02,12.64-16.05,24.46-32.7,35.38-49.97,2.45-3.87-3.69-7.44-6.13-3.58h0Z"/>
        </g>
      </g>
      <g class="cls-6">
        <g>
          <path class="cls-3" d="M571.93,39.29c18.29,2.89,35.11,10.21,51.11,19.31,8.32,4.73,16.4,9.87,24.43,15.06,7.17,4.64,14.99,9.11,20.46,15.83,10.18,12.51,8.67,31.02,16.01,45.07,8.15,15.62,24.83,20.5,37.48,31.24,6.04,5.13,10.83,11.75,13.79,19.11,1.41,3.51,2.44,7.27,3.04,11.01.3,1.89.44,3.78.5,5.69.03,1.15.56,5.36-.27,6.37-1.09,1.34-7.54-.57-9.28-1.02-4.71-1.22-9.25-3-13.72-4.92-9.37-4.02-18.63-8.29-27.84-12.64-37.29-17.62-73.54-37.31-109.72-57.06-8.82-4.81-18.93-9.33-25.82-16.86s-2.11-18.12-1.54-27.05c.29-4.46-2.19-10.43-.26-14.39,2.11-4.34,5.95-8.42,8.88-12.22,6.57-8.52,13.37-16.85,19.57-25.65,5.27-7.48-7.03-14.58-12.25-7.16-6.03,8.55-12.65,16.65-19.02,24.93-3.07,3.99-6.36,7.97-9.02,12.26-2.99,4.82-3.44,9.4-2.58,14.93,1.56,9.97-2.74,19.57-1.29,29.54,1.48,10.2,8.97,17.12,17.04,22.76,8.9,6.22,18.86,11.02,28.38,16.21,10.11,5.51,20.22,11,30.37,16.42,20.29,10.85,40.72,21.45,61.44,31.46,10.07,4.86,20.21,9.58,30.43,14.11s20.19,9.18,31.24,10.5c10.31,1.24,18.23-3.76,19.25-14.46.87-9.14-.76-18.75-4.15-27.25s-8.3-16.28-14.9-22.61-14.94-10.83-22.73-15.8c-7.54-4.82-13.63-10.43-16.71-19.04s-4.07-17.7-6.94-26.31c-7.28-21.89-28.11-32.7-46.65-44.1-20.05-12.32-41.51-23.25-64.98-26.96-3.81-.6-7.59.98-8.73,4.96-.97,3.37,1.18,8.13,4.96,8.73h0Z"/>
          <path class="cls-3" d="M570.21,144.42c-12.96,23.16-27.27,45.61-41.26,68.15-23.24,37.43-46.72,74.71-70.26,111.95-26.25,41.53-52.6,83-79.01,124.43-22.45,35.23-44.95,70.43-67.5,105.6-4.2,6.55-8.4,13.09-12.6,19.63-3.59,5.58-6.87,11.27-7.54,18.02-.83,8.41,3.32,15.43,9.79,20.48,6.78,5.3,14.66,9.33,22.02,13.75s15.17,9.36,24.16,8.07c11-1.58,17.07-11.37,22.46-20.04,11.78-18.96,23.84-37.74,35.83-56.56,20.17-31.68,40.35-63.35,60.5-95.05,23.1-36.35,46.17-72.73,69.12-109.18,20.74-32.94,41.4-65.92,61.76-99.1,13.12-21.38,26.48-42.73,38.44-64.79,1.4-2.58,2.78-5.18,4.02-7.84,3.83-8.23-8.4-15.44-12.25-7.16-8.26,17.73-19.24,34.43-29.35,51.13-18.29,30.22-36.98,60.2-55.74,90.13-22.37,35.71-44.89,71.32-67.46,106.9-21.15,33.34-42.35,66.65-63.56,99.96-15.01,23.57-30.05,47.13-44.98,70.75-4.8,7.6-9.33,17.29-15.61,23.69-6.19,6.31-13.13,1.04-19.32-2.67-7.17-4.3-15.49-8.1-21.87-13.55-9.08-7.75,1.33-18.98,6.16-26.52,20.8-32.39,41.53-64.82,62.23-97.26,25.76-40.37,51.46-80.77,77.08-121.22,24.17-38.16,48.28-76.35,72.2-114.66,16.41-26.29,32.9-52.56,48.65-79.25,2.08-3.53,4.15-7.07,6.15-10.65,4.46-7.98-7.79-15.14-12.25-7.16h0Z"/>
          <path class="cls-3" d="M538.09,357.15c59.2,65.3,113.75,134.75,163.02,207.84,2.95,4.37,5.88,8.76,8.79,13.16,1.54,2.33,3.08,4.66,4.61,7,.68,1.04,1.36,2.07,2.04,3.12.46.68.9,1.37,1.33,2.07.82,1.54.93.53.33-3.01-1.11-.4-11.1,8.73-12.38,9.71-4.59,3.52-9.2,7-13.85,10.44-9.03,6.69-18.17,13.24-27.41,19.64-1.32.91-2.63,1.84-3.97,2.73l-.79.54c-1.84.84-1.84,1.12,0,.83l1.37-.04c-.69-1.02-1.38-2.03-2.07-3.04-.69-1.01-1.39-2.02-2.09-3.02-3.16-4.52-6.4-8.99-9.72-13.39-13.13-17.42-28.31-33.12-41.33-50.59s-26.46-33.81-38.46-51.6c-28.01-41.53-57.63-82.23-80-127.23-4.07-8.18-16.31-1-12.25,7.16,21.21,42.67,48.85,81.78,75.75,120.98,6.56,9.57,12.67,19.37,20.07,28.33,7.33,8.88,14.16,18.04,21.01,27.3,13.7,18.53,29.7,35.11,43.53,53.54,3.31,4.41,6.54,8.88,9.69,13.41s5.79,10.12,11.22,11.71,10.08-1.83,14.43-4.84c5.02-3.47,10.01-6.98,14.97-10.54,9.92-7.11,19.7-14.4,29.37-21.85,7.36-5.67,21.07-12.63,15.16-23.85-5.3-10.07-12.78-19.51-19.15-28.93s-13.31-19.46-20.11-29.09c-13.59-19.27-27.55-38.28-41.87-57.01-32.02-41.9-65.76-82.46-101.18-121.52-6.15-6.78-16.16,3.28-10.04,10.04h0Z"/>
          <path class="cls-3" d="M697.07,564.68c-16.34,15.63-34.58,28.87-54.46,39.65-8.03,4.35-.88,16.61,7.16,12.25,20.89-11.32,40.17-25.44,57.33-41.87,6.61-6.33-3.43-16.35-10.04-10.04h0Z"/>
          <path class="cls-3" d="M476.83,249.57c-5.76-7.54-13.13-13.44-19.62-20.3-2.55-2.7-5.4-5.71-6.8-9.22-2.04-5.09-.7-10.86.96-15.83,1.8-5.38,6.16-10.98,3.35-16.74-2.38-4.89-8.16-6.52-13.16-6.8-1.97-.11-4.53.44-6.4-.14-2.19-.68-2.99-2.27-4.2-4.14-3.39-5.22-6.5-10.62-9.43-16.11-20.74-38.93-32.61-83.68-64.71-115.58-7.31-7.26-15.86-14.55-25.42-18.59-11.12-4.7-22.99-2.88-33.81,1.74-9.29,3.97-19.4,9.6-25.98,17.44-6.99,8.34-9.65,19.47-9.2,30.19.93,21.83,12.75,40.86,26.36,57.19,14.87,17.85,31.87,34.17,49.41,49.37,9.52,8.26,20.24,15.55,28.95,24.68,3.94,4.13,7.26,8.85,8.78,14.42.64,2.36,1,4.81.75,7.26-.3,2.97-1.98,5.78-1.81,8.8.4,7.14,6.23,9.04,12.26,9.16,5.45.11,10.71,1.1,15.84,2.95,10.16,3.66,18.89,10.8,24.62,19.91,4.86,7.71,17.14.6,12.25-7.16-5.89-9.35-14.03-17.16-23.82-22.36-4.74-2.52-9.84-4.54-15.06-5.79-2.57-.62-5.19-1.03-7.82-1.33-1.5-.17-3-.31-4.51-.37-.61-.02-3.52-.52-2.61.09l3.26,4.24c-.31-.8,1.02-3.71,1.18-4.73.34-2.14.54-4.3.42-6.46-.25-4.62-1.38-9.02-3.18-13.26-3.56-8.35-9.7-15.15-16.49-21.03-14.93-12.93-30.34-25.05-44.52-38.86s-27.32-26.85-37.62-42.72c-8.94-13.77-16.92-32.83-10.19-49.19,3.33-8.1,11.41-12.78,18.76-16.76,7.95-4.31,17.62-8.01,26.67-5.05,8.3,2.71,15.82,9.68,21.94,15.69s11.82,12.97,16.76,20.23c21.47,31.52,31.87,68.81,51.06,101.57,5.25,8.97,10.13,18.16,21.6,18.8.92.05,6.41.71,6.87.21l-.71-1.5c-.51-2.05-.99-2-1.44.16-.86,1.01-1.27,3.01-1.74,4.23-1.94,5.03-3.28,10.41-3.37,15.83-.35,20.12,18.6,29.01,29.32,43.03,2.35,3.07,6.08,4.61,9.71,2.55,3.02-1.72,4.87-6.67,2.55-9.71h0Z"/>
          <path class="cls-3" d="M429.85,186.69c-16.84,10.24-32.76,21.88-47.68,34.76-2.49,2.15-2.44,5.91-1.11,8.6,2.74,5.56,9.44,8.01,15.33,6.53,6.25-1.57,11.28-6.88,16.53-10.34,11.15-7.35,23.05-13.63,32.42-23.34l-11.14-8.6c-10.93,14.16-25.92,25.34-42.56,31.88-8.4,3.3-4.74,17.03,3.77,13.68,20.44-8.03,37.63-21.03,51.04-38.4,4.97-6.44-5.65-14.29-11.14-8.6-6.61,6.85-14.6,11.75-22.64,16.74-3.93,2.44-7.86,4.9-11.61,7.61-1.68,1.21-3.27,2.55-4.95,3.75-.78.56-2.27,1.13-2.97,1.76-1.02.91-.34-.92.2.16l-1.11,8.6c14.02-12.1,28.98-22.93,44.81-32.54,7.79-4.74.67-17.01-7.16-12.25h0Z"/>
          <path class="cls-3" d="M343.89,46.34c-21.77,17.19-43.97,33.81-66.57,49.89-7.38,5.25-.3,17.56,7.16,12.25,23.58-16.78,46.72-34.17,69.44-52.11,3.03-2.39,2.46-7.52,0-10.04-2.94-3-7.04-2.36-10.04,0h0Z"/>
          <path class="cls-3" d="M709.33,576.32c-22.66,12.2-45.31,24.4-67.97,36.6-5.77,3.1-3.71,11,1.7,12.97,8.04,2.93,16.45,5.56,25.1,4.2,8.16-1.29,14.47-6.22,20.69-11.33s12.02-10.4,18.97-14.37c6.92-3.95,13.96-7.86,15.28-16.52,1.17-7.69-3.78-14.34-11.39-15.61s-14.01,3.35-19.93,7.67c-14.19,10.36-27.54,21.79-40.71,33.41-2.21,1.94-2.79,6.14-1.11,8.6,5.9,8.64,15.47,5.43,23.78,2.71,9.9-3.25,19.69-7.07,28.91-11.94,7.92-4.19,16.84-9.22,20.42-17.9,3.21-7.78.71-17.9-7.23-21.74-8.19-3.96-15.39,8.28-7.16,12.25,8.52,4.12-14.66,15.93-17.17,17.15-5.34,2.6-10.86,4.8-16.46,6.77-3.09,1.09-6.21,2.11-9.34,3.08-1.17.36-2.73.57-3.8,1.12-1.63.83-1.59-1.44.3,1.34l-1.11,8.6c9.25-8.16,18.57-16.24,28.24-23.9,4.73-3.75,9.55-7.48,14.57-10.84,1.5-1,3.64-2.76,5.58-2.45-1.02-.16.9-1.45-.54.25-.64.76-1.22,1.5-2.04,2.12-4.38,3.31-9.62,5.44-14.06,8.77s-8.94,7.2-13.37,10.87c-4.14,3.43-8.61,7.36-14.15,8.03-6.29.76-12.71-1.89-18.5-4l1.7,12.97c22.66-12.2,45.31-24.4,67.97-36.6,8.04-4.33.89-16.59-7.16-12.25h0Z"/>
          <path class="cls-3" d="M539.62,85.78c44.37,42.09,99.14,69.96,152.17,99.31,15.3,8.47,30.5,17.13,45.37,26.34l1.7-12.97c-12.09,3.45-24.09-5.68-33.83-11.67-11.81-7.26-23.52-14.7-35.26-22.07-23.16-14.55-46.46-28.91-69.47-43.7-10.44-6.72-20.8-13.64-30.59-21.3-6.65-5.21-19.62-19.17-27.57-7.85-6.8,9.69,4.93,21.48,12.88,25.61,5.07,2.64,10.51,4.44,15.51,7.24s10.08,6.37,14.84,9.95c10.05,7.56,19.72,15.71,31.09,21.26,6.26,3.06,12.82,5.49,19.29,8.06,3.18,1.27,6.34,2.57,9.43,4.07,1.59.77,7.21,3.21,7.35,4.01v-3.77c.99-4.44,4.68-1.36.99-3.54-2.04-1.2-3.91-2.68-5.67-4.25-3.75-3.32-7.11-7.04-10.46-10.75-6.96-7.69-14.15-15.2-23.5-19.97-17.67-9.01-40.31-8.48-56.22-20.85-2.87,3.71-5.73,7.43-8.6,11.14,19.75,12.86,39.24,26.12,58.46,39.76,7.46,5.3,14.56-7,7.16-12.25-19.22-13.65-38.7-26.9-58.46-39.76-6.63-4.32-15.02,6.16-8.6,11.14,12.15,9.44,26.46,12.85,41.05,16.76,6.87,1.84,13.77,3.85,20.01,7.35s11.65,8.99,16.64,14.47,9.64,10.84,15.34,15.36c5.17,4.1,11.49,8.49,18.47,6.53,8.27-2.32,9.23-12.25,3.33-17.58s-14.8-8.3-22.14-11.24-15.45-5.93-22.63-10.12-13.51-9.16-19.97-14.13-12.5-9.6-19.33-13.52-15.65-5.59-21.2-10.94c-.91-.87-1.58-2.89-2.43-3.51-1.76-1.29-5.09,1.99-4.28,3.87.08.19,1.24.98,1.45,1.15,3.81,2.99,7.48,6.16,11.32,9.11,6.97,5.35,14.17,10.4,21.49,15.26,15.59,10.36,31.58,20.12,47.43,30.07,18.28,11.48,36.55,22.98,54.84,34.44,16.08,10.07,35.41,25.62,55.61,19.84,5.96-1.7,6.87-9.77,1.7-12.97-50.99-31.59-106.11-56.37-155.15-91.12-13.9-9.85-27.14-20.58-39.51-32.31-6.62-6.28-16.68,3.73-10.04,10.04h0Z"/>
          <path class="cls-3" d="M484.13,340.78c-12.94,24.37-26.69,48.29-41.22,71.74-2.41,3.89,3.72,7.46,6.13,3.58,14.53-23.45,28.28-47.38,41.22-71.74,2.14-4.03-3.98-7.62-6.13-3.58h0Z"/>
          <path class="cls-3" d="M425.15,407.79c-10.59,16.75-22,32.96-34.27,48.53-2.8,3.55,2.19,8.6,5.02,5.02,12.64-16.05,24.46-32.7,35.38-49.97,2.45-3.87-3.69-7.44-6.13-3.58h0Z"/>
        </g>
      </g>
      <text class="cls-5" transform="translate(16.26 401.38) scale(.93 1)"><tspan class="cls-7" x="0" y="0">V</tspan><tspan class="cls-10" x="101.05" y="0">AN DER </tspan><tspan class="cls-9" x="682.46" y="0">W</tspan><tspan class="cls-11" x="813.79" y="0">AL</tspan></text>
      <line class="cls-2" y1="490.75" x2="955.84" y2="490.75"/>
      <line class="cls-2" x1="955.84" y1="256.92" x2="3.59" y2="256.92"/>
      <text class="cls-4" transform="translate(183.89 470.04) scale(.93 1)"><tspan x="0" y="0">BOUW EN ONDERHOUD</tspan></text>
    </g>
  </g>
</svg>